Coordinates
version=1
nRows=88
nColumns=6
inDegrees=yes

Units are S.I. units (second, meters, Newtons, ...)
If the header above contains a line with 'inDegrees', this indicates whether rotational values are in degrees (yes) or radians (no).

endheader
time	foot_tx	hip_flexion_r	knee_angle_r	ankle_angle_r	lumbar
      8.30000000	      0.28155163	     21.01058430	    -12.46720617	      6.98122698	     -1.90484866
      8.31000000	      0.28170549	     20.29620653	    -11.77011038	      6.80863515	     -1.44239841
      8.32000000	      0.28183493	     19.61761603	    -11.10374107	      6.64812666	     -0.97214116
      8.33000000	      0.28193482	     18.97499994	    -10.46553507	      6.49782636	     -0.49483420
      8.34000000	      0.28199854	     18.36738090	     -9.85417301	      6.35685774	     -0.01264972
      8.35000000	      0.28202355	     17.83197792	     -9.26966926	      6.22245815	      0.51451024
      8.36000000	      0.28201181	     17.24813878	     -8.69392106	      6.09171796	      0.95582821
      8.37000000	      0.28196306	     16.75581849	     -8.14855719	      5.96788589	      1.46152921
      8.38000000	      0.28188443	     16.22690556	     -7.61912576	      5.85016103	      1.89041414
      8.39000000	      0.28179534	     15.76711916	     -7.12244408	      5.74028696	      2.35625104
      8.40000000	      0.28170642	     15.27673911	     -6.65006104	      5.63932378	      2.74914587
      8.41000000	      0.28162283	     14.85001091	     -6.21273012	      5.54817541	      3.17659489
      8.42000000	      0.28155044	     14.43605825	     -5.80402141	      5.46572977	      3.58101847
      8.43000000	      0.28147769	     14.03174015	     -5.41451257	      5.38871879	      3.96909960
      8.44000000	      0.28140678	     13.64314950	     -5.04348899	      5.31567368	      4.34659374
      8.45000000	      0.28133185	     13.26189249	     -4.68471340	      5.24449535	      4.70912420
      8.46000000	      0.28125094	     12.89554124	     -4.33924179	      5.17526527	      5.06496419
      8.47000000	      0.28115777	     12.53463968	     -4.00361795	      5.10760999	      5.40765322
      8.48000000	      0.28104876	     12.18661657	     -3.67838233	      5.04185929	      5.74659919
      8.49000000	      0.28091565	     11.84623546	     -3.36360439	      4.97892156	      6.07679802
      8.50000000	      0.28075344	     11.51380527	     -3.06034508	      4.91985161	      6.39889816
      8.51000000	      0.28056814	     11.19111662	     -2.77131224	      4.86553312	      6.71299484
      8.52000000	      0.28036325	     10.87857045	     -2.49602228	      4.81554910	      7.01898892
      8.53000000	      0.28014688	     10.57708863	     -2.23721794	      4.77084453	      7.31547383
      8.54000000	      0.27992250	     10.28687103	     -1.99406040	      4.73078570	      7.60286021
      8.55000000	      0.27969675	     10.00886376	     -1.76880787	      4.69590050	      7.87920703
      8.56000000	      0.27947373	      9.74433820	     -1.56254554	      4.66629172	      8.14452033
      8.57000000	      0.27925654	      9.49401835	     -1.37493147	      4.64137022	      8.39888369
      8.58000000	      0.27904734	      9.25807386	     -1.20606382	      4.62112066	      8.64258451
      8.59000000	      0.27884716	      9.03625296	     -1.05463477	      4.60480732	      8.87588282
      8.60000000	      0.27865617	      8.82813653	     -0.91950332	      4.59173330	      9.09853434
      8.61000000	      0.27847182	      8.63352203	     -0.79940417	      4.58133984	      9.31048437
      8.62000000	      0.27828956	      8.45080665	     -0.69045470	      4.57186941	      9.51234337
      8.63000000	      0.27811057	      8.27971656	     -0.59313053	      4.56362641	      9.70371104
      8.64000000	      0.27793594	      8.11936349	     -0.50593912	      4.55586842	      9.88471183
      8.65000000	      0.27776913	      7.97043048	     -0.42786624	      4.54786012	     10.05706147
      8.66000000	      0.27760970	      7.82956325	     -0.35776130	      4.53951688	     10.21832646
      8.67000000	      0.27746315	      7.69525033	     -0.29577341	      4.53048876	     10.36600910
      8.68000000	      0.27732737	      7.56703693	     -0.24148645	      4.52126114	     10.50181881
      8.69000000	      0.27720023	      7.44547824	     -0.19509258	      4.51208983	     10.62652655
      8.70000000	      0.27708064	      7.33008736	     -0.15661437	      4.50317938	     10.73946896
      8.71000000	      0.27696421	      7.22086882	     -0.12541032	      4.49463486	     10.84177128
      8.72000000	      0.27684652	      7.11790150	     -0.10002294	      4.48598901	     10.93398243
      8.73000000	      0.27672525	      7.02095965	     -0.07978825	      4.47701926	     11.01643780
      8.74000000	      0.27659712	      6.92954655	     -0.06277726	      4.46702226	     11.08976213
      8.75000000	      0.27645848	      6.84340268	     -0.04706720	      4.45522804	     11.15478703
      8.76000000	      0.27630584	      6.76266087	     -0.03098890	      4.44097900	     11.21302132
      8.77000000	      0.27613625	      6.68687337	     -0.01305511	      4.42372983	     11.26552918
      8.78000000	      0.27594749	      6.61539571	      0.00813088	      4.40297355	     11.31316396
      8.79000000	      0.27573704	      6.54690036	      0.03418471	      4.37825756	     11.35616749
      8.80000000	      0.27550956	      6.48016408	      0.06500781	      4.34962017	     11.39476538
      8.81000000	      0.27526349	      6.41608011	      0.10082949	      4.31724942	     11.43077059
      8.82000000	      0.27500134	      6.35487182	      0.14121241	      4.28153640	     11.46560185
      8.83000000	      0.27472486	      6.29504279	      0.18656608	      4.24259908	     11.49871172
      8.84000000	      0.27443148	      6.23818028	      0.23565242	      4.20152005	     11.53287217
      8.85000000	      0.27412791	      6.18226232	      0.28908206	      4.15796708	     11.56665386
      8.86000000	      0.27381403	      6.12731780	      0.34587902	      4.11289820	     11.60142838
      8.87000000	      0.27348985	      6.07427586	      0.40516352	      4.06686251	     11.63770392
      8.88000000	      0.27316229	      6.02328959	      0.46572357	      4.02017104	     11.67572750
      8.89000000	      0.27283203	      5.97463199	      0.52666659	      3.97356843	     11.71557783
      8.90000000	      0.27250547	      5.92780714	      0.58700150	      3.92760089	     11.75709988
      8.91000000	      0.27218934	      5.88322623	      0.64650785	      3.88246369	     11.80134887
      8.92000000	      0.27188656	      5.84090551	      0.70369560	      3.83925790	     11.84955230
      8.93000000	      0.27160467	      5.80097330	      0.75842934	      3.79804287	     11.90346735
      8.94000000	      0.27134320	      5.76390126	      0.81088713	      3.75900605	     11.96431876
      8.95000000	      0.27110119	      5.76058574	      0.85331582	      3.72441931	     12.06373205
      8.96000000	      0.27088220	      5.72189743	      0.89826745	      3.68971284	     12.12174973
      8.97000000	      0.27069313	      5.69396410	      0.93307585	      3.65578684	     12.17628041
      8.98000000	      0.27052346	      5.67843512	      0.95188449	      3.62259683	     12.21194610
      8.99000000	      0.27037234	      5.67204718	      0.95310729	      3.58945251	     12.21882387
      9.00000000	      0.27024695	      5.64284759	      0.95011157	      3.55273503	     12.17423434
      9.01000000	      0.27013020	      5.61443858	      0.93681472	      3.51891748	     12.11495018
      9.02000000	      0.27001918	      5.59052472	      0.91988766	      3.48737153	     12.05991925
      9.03000000	      0.26991752	      5.56075654	      0.91560524	      3.45149287	     12.01367591
      9.04000000	      0.26981173	      5.56262193	      0.90427021	      3.42007854	     12.00592049
      9.05000000	      0.26970527	      5.51526411	      0.90856934	      3.38623792	     11.95899097
      9.06000000	      0.26959162	      5.50280824	      0.91768436	      3.35072674	     11.96130039
      9.07000000	      0.26947070	      5.46552203	      0.93814048	      3.31293919	     11.94207622
      9.08000000	      0.26933912	      5.44829208	      0.96717066	      3.27187524	     11.95172558
      9.09000000	      0.26919850	      5.42612917	      1.00378063	      3.22912177	     11.95805439
      9.10000000	      0.26906062	      5.37827974	      1.04165256	      3.18834527	     11.93236366
      9.11000000	      0.26892965	      5.36337871	      1.06887595	      3.15307782	     11.93875104
      9.12000000	      0.26881253	      5.33149930	      1.08341115	      3.12682434	     11.91757208
      9.13000000	      0.26870951	      5.32266578	      1.08341542	      3.10861913	     11.91689021
      9.14000000	      0.26861517	      5.31196157	      1.06832352	      3.09988105	     11.90389594
      9.15000000	      0.26853932	      5.30673129	      1.05251580	      3.09156876	     11.89493465
      9.16000000	      0.26846976	      5.30087709	      1.03107319	      3.08811981	     11.88352568
      9.17000000	      0.26841799	      5.30090297	      1.00757541	      3.08521311	     11.87013315
